# xmcd
# 
# Track frame offsets:
#     150
#     20725
#     37870
#     55092
#     69890
#     90205
#     106350
#     128755
#     151052
#     168232
# 
# Disc length: 2521
# 
# Revision: 32
# Processed by: cddbd v1.5.2PL0 Copyright (c) Steve Scherf et al.
# Submitted via: BonkEnc v1.0.15
# 
DISCID=6909d70a
DTITLE=k.d. Lang - Ingenue (WPCP-4809)
DYEAR=1992
DGENRE=Rock
TTITLE0=Save Me
TTITLE1=The Mind Of Love
TTITLE2=Miss Chatelaine
TTITLE3=Wash Me Clean
TTITLE4=So It Shall Be
TTITLE5=Still Thrives This Love
TTITLE6=Season Of Hollow Soul
TTITLE7=Outside Myself
TTITLE8=Tears Of Love's Recall
TTITLE9=Constant Craving
EXTD=YEAR: 1992
EXTT0=
EXTT1=
EXTT2=
EXTT3=
EXTT4=
EXTT5=
EXTT6=
EXTT7=
EXTT8=
EXTT9=
PLAYORDER=
